<svg width="44" height="44" viewBox="0 0 44 44" fill="none" xmlns="http://www.w3.org/2000/svg">
<rect x="0.5" y="0.5" width="43" height="43" rx="21.5" fill="white"/>
<rect x="0.5" y="0.5" width="43" height="43" rx="21.5" stroke="black"/>
<mask id="mask0_214_57" style="mask-type:alpha" maskUnits="userSpaceOnUse" x="12" y="12" width="20" height="20">
<rect x="12" y="12" width="20" height="20" fill="#D9D9D9"/>
</mask>
<g mask="url(#mask0_214_57)">
<path d="M27.8333 29.4998L22 23.6665L20.0416 25.6248C20.1527 25.8332 20.2291 26.0554 20.2708 26.2915C20.3125 26.5276 20.3333 26.7637 20.3333 26.9998C20.3333 27.9165 20.0069 28.7012 19.3541 29.354C18.7013 30.0068 17.9166 30.3332 17 30.3332C16.0833 30.3332 15.2986 30.0068 14.6458 29.354C13.993 28.7012 13.6666 27.9165 13.6666 26.9998C13.6666 26.0832 13.993 25.2984 14.6458 24.6457C15.2986 23.9929 16.0833 23.6665 17 23.6665C17.2361 23.6665 17.4722 23.6873 17.7083 23.729C17.9444 23.7707 18.1666 23.8471 18.375 23.9582L20.3333 21.9998L18.375 20.0415C18.1666 20.1526 17.9444 20.229 17.7083 20.2707C17.4722 20.3123 17.2361 20.3332 17 20.3332C16.0833 20.3332 15.2986 20.0068 14.6458 19.354C13.993 18.7012 13.6666 17.9165 13.6666 16.9998C13.6666 16.0832 13.993 15.2984 14.6458 14.6457C15.2986 13.9929 16.0833 13.6665 17 13.6665C17.9166 13.6665 18.7013 13.9929 19.3541 14.6457C20.0069 15.2984 20.3333 16.0832 20.3333 16.9998C20.3333 17.2359 20.3125 17.4721 20.2708 17.7082C20.2291 17.9443 20.1527 18.1665 20.0416 18.3748L30.3333 28.6665V29.4998H27.8333ZM24.5 21.1665L22.8333 19.4998L27.8333 14.4998H30.3333V15.3332L24.5 21.1665ZM17 18.6665C17.4583 18.6665 17.8507 18.5033 18.177 18.1769C18.5034 17.8505 18.6666 17.4582 18.6666 16.9998C18.6666 16.5415 18.5034 16.1491 18.177 15.8228C17.8507 15.4964 17.4583 15.3332 17 15.3332C16.5416 15.3332 16.1493 15.4964 15.8229 15.8228C15.4965 16.1491 15.3333 16.5415 15.3333 16.9998C15.3333 17.4582 15.4965 17.8505 15.8229 18.1769C16.1493 18.5033 16.5416 18.6665 17 18.6665ZM22 22.4165C22.1111 22.4165 22.2083 22.3748 22.2916 22.2915C22.375 22.2082 22.4166 22.1109 22.4166 21.9998C22.4166 21.8887 22.375 21.7915 22.2916 21.7082C22.2083 21.6248 22.1111 21.5832 22 21.5832C21.8888 21.5832 21.7916 21.6248 21.7083 21.7082C21.625 21.7915 21.5833 21.8887 21.5833 21.9998C21.5833 22.1109 21.625 22.2082 21.7083 22.2915C21.7916 22.3748 21.8888 22.4165 22 22.4165ZM17 28.6665C17.4583 28.6665 17.8507 28.5033 18.177 28.1769C18.5034 27.8505 18.6666 27.4582 18.6666 26.9998C18.6666 26.5415 18.5034 26.1491 18.177 25.8228C17.8507 25.4964 17.4583 25.3332 17 25.3332C16.5416 25.3332 16.1493 25.4964 15.8229 25.8228C15.4965 26.1491 15.3333 26.5415 15.3333 26.9998C15.3333 27.4582 15.4965 27.8505 15.8229 28.1769C16.1493 28.5033 16.5416 28.6665 17 28.6665Z" fill="black"/>
</g>
</svg>
