<svg width="44" height="44" viewBox="0 0 44 44" fill="none" xmlns="http://www.w3.org/2000/svg">
<rect width="44" height="44" rx="22" fill="black"/>
<mask id="mask0_216_363" style="mask-type:alpha" maskUnits="userSpaceOnUse" x="12" y="12" width="20" height="20">
<rect x="12" y="12" width="20" height="20" fill="#D9D9D9"/>
</mask>
<g mask="url(#mask0_216_363)">
<path d="M27.8334 29.4998L22.0001 23.6665L20.0417 25.6248C20.1529 25.8332 20.2292 26.0554 20.2709 26.2915C20.3126 26.5276 20.3334 26.7637 20.3334 26.9998C20.3334 27.9165 20.007 28.7012 19.3542 29.354C18.7015 30.0068 17.9167 30.3332 17.0001 30.3332C16.0834 30.3332 15.2987 30.0068 14.6459 29.354C13.9931 28.7012 13.6667 27.9165 13.6667 26.9998C13.6667 26.0832 13.9931 25.2984 14.6459 24.6457C15.2987 23.9929 16.0834 23.6665 17.0001 23.6665C17.2362 23.6665 17.4723 23.6873 17.7084 23.729C17.9445 23.7707 18.1667 23.8471 18.3751 23.9582L20.3334 21.9998L18.3751 20.0415C18.1667 20.1526 17.9445 20.229 17.7084 20.2707C17.4723 20.3123 17.2362 20.3332 17.0001 20.3332C16.0834 20.3332 15.2987 20.0068 14.6459 19.354C13.9931 18.7012 13.6667 17.9165 13.6667 16.9998C13.6667 16.0832 13.9931 15.2984 14.6459 14.6457C15.2987 13.9929 16.0834 13.6665 17.0001 13.6665C17.9167 13.6665 18.7015 13.9929 19.3542 14.6457C20.007 15.2984 20.3334 16.0832 20.3334 16.9998C20.3334 17.2359 20.3126 17.4721 20.2709 17.7082C20.2292 17.9443 20.1529 18.1665 20.0417 18.3748L30.3334 28.6665V29.4998H27.8334ZM24.5001 21.1665L22.8334 19.4998L27.8334 14.4998H30.3334V15.3332L24.5001 21.1665ZM17.0001 18.6665C17.4584 18.6665 17.8508 18.5033 18.1772 18.1769C18.5036 17.8505 18.6667 17.4582 18.6667 16.9998C18.6667 16.5415 18.5036 16.1491 18.1772 15.8228C17.8508 15.4964 17.4584 15.3332 17.0001 15.3332C16.5417 15.3332 16.1494 15.4964 15.823 15.8228C15.4966 16.1491 15.3334 16.5415 15.3334 16.9998C15.3334 17.4582 15.4966 17.8505 15.823 18.1769C16.1494 18.5033 16.5417 18.6665 17.0001 18.6665ZM22.0001 22.4165C22.1112 22.4165 22.2084 22.3748 22.2917 22.2915C22.3751 22.2082 22.4167 22.1109 22.4167 21.9998C22.4167 21.8887 22.3751 21.7915 22.2917 21.7082C22.2084 21.6248 22.1112 21.5832 22.0001 21.5832C21.889 21.5832 21.7917 21.6248 21.7084 21.7082C21.6251 21.7915 21.5834 21.8887 21.5834 21.9998C21.5834 22.1109 21.6251 22.2082 21.7084 22.2915C21.7917 22.3748 21.889 22.4165 22.0001 22.4165ZM17.0001 28.6665C17.4584 28.6665 17.8508 28.5033 18.1772 28.1769C18.5036 27.8505 18.6667 27.4582 18.6667 26.9998C18.6667 26.5415 18.5036 26.1491 18.1772 25.8228C17.8508 25.4964 17.4584 25.3332 17.0001 25.3332C16.5417 25.3332 16.1494 25.4964 15.823 25.8228C15.4966 26.1491 15.3334 26.5415 15.3334 26.9998C15.3334 27.4582 15.4966 27.8505 15.823 28.1769C16.1494 28.5033 16.5417 28.6665 17.0001 28.6665Z" fill="white"/>
</g>
</svg>
