<svg width="20" height="20" viewBox="0 0 20 20" fill="none" xmlns="http://www.w3.org/2000/svg">
<mask id="mask0_214_58" style="mask-type:alpha" maskUnits="userSpaceOnUse" x="0" y="0" width="20" height="20">
<rect width="20" height="20" fill="#D9D9D9"/>
</mask>
<g mask="url(#mask0_214_58)">
<path d="M15.8333 17.4998L9.99996 11.6665L8.04163 13.6248C8.15274 13.8332 8.22913 14.0554 8.27079 14.2915C8.31246 14.5276 8.33329 14.7637 8.33329 14.9998C8.33329 15.9165 8.0069 16.7012 7.35413 17.354C6.70135 18.0068 5.91663 18.3332 4.99996 18.3332C4.08329 18.3332 3.29857 18.0068 2.64579 17.354C1.99301 16.7012 1.66663 15.9165 1.66663 14.9998C1.66663 14.0832 1.99301 13.2984 2.64579 12.6457C3.29857 11.9929 4.08329 11.6665 4.99996 11.6665C5.23607 11.6665 5.47218 11.6873 5.70829 11.729C5.9444 11.7707 6.16663 11.8471 6.37496 11.9582L8.33329 9.99984L6.37496 8.0415C6.16663 8.15262 5.9444 8.229 5.70829 8.27067C5.47218 8.31234 5.23607 8.33317 4.99996 8.33317C4.08329 8.33317 3.29857 8.00678 2.64579 7.354C1.99301 6.70123 1.66663 5.9165 1.66663 4.99984C1.66663 4.08317 1.99301 3.29845 2.64579 2.64567C3.29857 1.99289 4.08329 1.6665 4.99996 1.6665C5.91663 1.6665 6.70135 1.99289 7.35413 2.64567C8.0069 3.29845 8.33329 4.08317 8.33329 4.99984C8.33329 5.23595 8.31246 5.47206 8.27079 5.70817C8.22913 5.94428 8.15274 6.1665 8.04163 6.37484L18.3333 16.6665V17.4998H15.8333ZM12.5 9.1665L10.8333 7.49984L15.8333 2.49984H18.3333V3.33317L12.5 9.1665ZM4.99996 6.6665C5.45829 6.6665 5.85065 6.50331 6.17704 6.17692C6.50343 5.85053 6.66663 5.45817 6.66663 4.99984C6.66663 4.5415 6.50343 4.14914 6.17704 3.82275C5.85065 3.49637 5.45829 3.33317 4.99996 3.33317C4.54163 3.33317 4.14926 3.49637 3.82288 3.82275C3.49649 4.14914 3.33329 4.5415 3.33329 4.99984C3.33329 5.45817 3.49649 5.85053 3.82288 6.17692C4.14926 6.50331 4.54163 6.6665 4.99996 6.6665ZM9.99996 10.4165C10.1111 10.4165 10.2083 10.3748 10.2916 10.2915C10.375 10.2082 10.4166 10.1109 10.4166 9.99984C10.4166 9.88873 10.375 9.7915 10.2916 9.70817C10.2083 9.62484 10.1111 9.58317 9.99996 9.58317C9.88885 9.58317 9.79163 9.62484 9.70829 9.70817C9.62496 9.7915 9.58329 9.88873 9.58329 9.99984C9.58329 10.1109 9.62496 10.2082 9.70829 10.2915C9.79163 10.3748 9.88885 10.4165 9.99996 10.4165ZM4.99996 16.6665C5.45829 16.6665 5.85065 16.5033 6.17704 16.1769C6.50343 15.8505 6.66663 15.4582 6.66663 14.9998C6.66663 14.5415 6.50343 14.1491 6.17704 13.8228C5.85065 13.4964 5.45829 13.3332 4.99996 13.3332C4.54163 13.3332 4.14926 13.4964 3.82288 13.8228C3.49649 14.1491 3.33329 14.5415 3.33329 14.9998C3.33329 15.4582 3.49649 15.8505 3.82288 16.1769C4.14926 16.5033 4.54163 16.6665 4.99996 16.6665Z" fill="black"/>
</g>
</svg>
