<svg width="28" height="28" viewBox="0 0 28 28" fill="none" xmlns="http://www.w3.org/2000/svg">
<mask id="mask0_216_449" style="mask-type:alpha" maskUnits="userSpaceOnUse" x="0" y="0" width="28" height="28">
<rect width="28" height="28" fill="#D9D9D9"/>
</mask>
<g mask="url(#mask0_216_449)">
<path d="M15.2026 13.9998L11.6151 17.5873L12.8334 18.8348L17.6684 13.9998L12.8334 9.16488L11.6151 10.4123L15.2026 13.9998ZM14.0021 25.0832C12.4691 25.0832 11.0282 24.7923 9.67933 24.2105C8.33047 23.6287 7.15719 22.8392 6.1595 21.8419C5.1618 20.8446 4.37187 19.6718 3.78971 18.3235C3.20773 16.9752 2.91675 15.5347 2.91675 14.0019C2.91675 12.4689 3.20764 11.0279 3.78941 9.67909C4.37119 8.33023 5.16073 7.15695 6.15804 6.15925C7.15535 5.16156 8.32814 4.37163 9.67641 3.78946C11.0247 3.20749 12.4652 2.9165 13.998 2.9165C15.531 2.9165 16.972 3.20739 18.3208 3.78917C19.6697 4.37095 20.843 5.16049 21.8407 6.1578C22.8384 7.1551 23.6283 8.32789 24.2105 9.67617C24.7924 11.0244 25.0834 12.465 25.0834 13.9978C25.0834 15.5308 24.7925 16.9717 24.2107 18.3206C23.629 19.6694 22.8394 20.8427 21.8421 21.8404C20.8448 22.8381 19.672 23.628 18.3237 24.2102C16.9755 24.7922 15.5349 25.0832 14.0021 25.0832ZM14.0001 23.3332C16.6056 23.3332 18.8126 22.429 20.6209 20.6207C22.4292 18.8123 23.3334 16.6054 23.3334 13.9998C23.3334 11.3943 22.4292 9.18734 20.6209 7.379C18.8126 5.57067 16.6056 4.6665 14.0001 4.6665C11.3945 4.6665 9.18758 5.57067 7.37925 7.379C5.57091 9.18734 4.66675 11.3943 4.66675 13.9998C4.66675 16.6054 5.57091 18.8123 7.37925 20.6207C9.18758 22.429 11.3945 23.3332 14.0001 23.3332Z" fill="#D9D9D9"/>
</g>
</svg>
