<svg width="390" height="362" viewBox="0 0 390 362" fill="none" xmlns="http://www.w3.org/2000/svg">
<rect width="390" height="362" fill="#F2F2F2"/>
<path d="M184.434 176.613C184.414 179.719 186.211 182.883 188.828 184.152L187.676 185.637C185.771 184.65 184.297 182.688 183.535 180.344C182.744 182.844 181.211 184.934 179.219 185.969L178.066 184.465C180.762 183.176 182.578 179.816 182.578 176.613V173.625H184.434V176.613ZM191.992 172.16V179.133H194.805V180.715H191.992V189.66H190.137V172.16H191.992ZM202.129 175.812C202.129 178.078 203.809 180.207 206.504 181.066L205.547 182.512C203.535 181.848 202.012 180.471 201.23 178.723C200.439 180.627 198.887 182.131 196.797 182.863L195.84 181.398C198.555 180.48 200.234 178.215 200.254 175.812V175.051H196.328V173.547H205.977V175.051H202.129V175.812ZM210.156 172.18V184.953H208.301V172.18H210.156ZM210.684 187.785V189.289H198.711V183.742H200.586V187.785H210.684Z" fill="#A0A0A0"/>
</svg>
