<svg width="28" height="28" viewBox="0 0 28 28" fill="none" xmlns="http://www.w3.org/2000/svg">
<mask id="mask0_216_450" style="mask-type:alpha" maskUnits="userSpaceOnUse" x="0" y="0" width="28" height="28">
<rect width="28" height="28" transform="matrix(-1 0 0 1 28 0)" fill="#D9D9D9"/>
</mask>
<g mask="url(#mask0_216_450)">
<path d="M12.7975 13.9998L16.385 17.5873L15.1667 18.8348L10.3317 13.9998L15.1667 9.16488L16.385 10.4123L12.7975 13.9998ZM13.998 25.0832C15.531 25.0832 16.9719 24.7923 18.3208 24.2105C19.6697 23.6287 20.8429 22.8392 21.8406 21.8419C22.8383 20.8446 23.6282 19.6718 24.2104 18.3235C24.7924 16.9752 25.0834 15.5347 25.0834 14.0019C25.0834 12.4689 24.7925 11.0279 24.2107 9.67909C23.6289 8.33023 22.8394 7.15695 21.8421 6.15925C20.8448 5.16156 19.672 4.37163 18.3237 3.78946C16.9754 3.20749 15.5349 2.9165 14.0021 2.9165C12.4691 2.9165 11.0282 3.20739 9.67929 3.78917C8.33043 4.37095 7.15715 5.16049 6.15946 6.1578C5.16176 7.1551 4.37183 8.32789 3.78967 9.67617C3.20769 11.0244 2.91671 12.465 2.91671 13.9978C2.91671 15.5308 3.2076 16.9717 3.78937 18.3206C4.37115 19.6694 5.16069 20.8427 6.158 21.8404C7.1553 22.8381 8.3281 23.628 9.67637 24.2102C11.0247 24.7922 12.4652 25.0832 13.998 25.0832ZM14 23.3332C11.3945 23.3332 9.18754 22.429 7.37921 20.6207C5.57088 18.8123 4.66671 16.6054 4.66671 13.9998C4.66671 11.3943 5.57088 9.18734 7.37921 7.379C9.18754 5.57067 11.3945 4.6665 14 4.6665C16.6056 4.6665 18.8125 5.57067 20.6209 7.379C22.4292 9.18734 23.3334 11.3943 23.3334 13.9998C23.3334 16.6054 22.4292 18.8123 20.6209 20.6207C18.8125 22.429 16.6056 23.3332 14 23.3332Z" fill="#D9D9D9"/>
</g>
</svg>
